<svg xmlns="http://www.w3.org/2000/svg" width="672" height="765" fill="none"><rect id="backgroundrect" width="100%" height="100%" x="0" y="0" fill="none" stroke="none"/>








<defs>
<filter id="filter0_b_0_53" x="55.20100021362305" y="-10" width="21" height="707" filterUnits="userSpaceOnUse" color-interpolation-filters="sRGB">
<feFlood flood-opacity="0" result="BackgroundImageFix"/>
<feGaussianBlur in="BackgroundImage" stdDeviation="5"/>
<feComposite in2="SourceAlpha" operator="in" result="effect1_backgroundBlur_0_53"/>
<feBlend mode="normal" in="SourceGraphic" in2="effect1_backgroundBlur_0_53" result="shape"/>
</filter>
<filter id="filter1_b_0_53" x="91.84040069580078" y="-10" width="21" height="707" filterUnits="userSpaceOnUse" color-interpolation-filters="sRGB">
<feFlood flood-opacity="0" result="BackgroundImageFix"/>
<feGaussianBlur in="BackgroundImage" stdDeviation="5"/>
<feComposite in2="SourceAlpha" operator="in" result="effect1_backgroundBlur_0_53"/>
<feBlend mode="normal" in="SourceGraphic" in2="effect1_backgroundBlur_0_53" result="shape"/>
</filter>
<filter id="filter2_b_0_53" x="128.48199462890625" y="-10" width="21" height="707" filterUnits="userSpaceOnUse" color-interpolation-filters="sRGB">
<feFlood flood-opacity="0" result="BackgroundImageFix"/>
<feGaussianBlur in="BackgroundImage" stdDeviation="5"/>
<feComposite in2="SourceAlpha" operator="in" result="effect1_backgroundBlur_0_53"/>
<feBlend mode="normal" in="SourceGraphic" in2="effect1_backgroundBlur_0_53" result="shape"/>
</filter>
<filter id="filter3_b_0_53" x="165.12100219726562" y="-10" width="21" height="707" filterUnits="userSpaceOnUse" color-interpolation-filters="sRGB">
<feFlood flood-opacity="0" result="BackgroundImageFix"/>
<feGaussianBlur in="BackgroundImage" stdDeviation="5"/>
<feComposite in2="SourceAlpha" operator="in" result="effect1_backgroundBlur_0_53"/>
<feBlend mode="normal" in="SourceGraphic" in2="effect1_backgroundBlur_0_53" result="shape"/>
</filter>
<filter id="filter4_b_0_53" x="201.76100158691406" y="-10" width="21" height="707" filterUnits="userSpaceOnUse" color-interpolation-filters="sRGB">
<feFlood flood-opacity="0" result="BackgroundImageFix"/>
<feGaussianBlur in="BackgroundImage" stdDeviation="5"/>
<feComposite in2="SourceAlpha" operator="in" result="effect1_backgroundBlur_0_53"/>
<feBlend mode="normal" in="SourceGraphic" in2="effect1_backgroundBlur_0_53" result="shape"/>
</filter>
<filter id="filter5_b_0_53" x="238.39999389648438" y="-10" width="21" height="707" filterUnits="userSpaceOnUse" color-interpolation-filters="sRGB">
<feFlood flood-opacity="0" result="BackgroundImageFix"/>
<feGaussianBlur in="BackgroundImage" stdDeviation="5"/>
<feComposite in2="SourceAlpha" operator="in" result="effect1_backgroundBlur_0_53"/>
<feBlend mode="normal" in="SourceGraphic" in2="effect1_backgroundBlur_0_53" result="shape"/>
</filter>
<filter id="filter6_b_0_53" x="275.0419921875" y="-10" width="21" height="707" filterUnits="userSpaceOnUse" color-interpolation-filters="sRGB">
<feFlood flood-opacity="0" result="BackgroundImageFix"/>
<feGaussianBlur in="BackgroundImage" stdDeviation="5"/>
<feComposite in2="SourceAlpha" operator="in" result="effect1_backgroundBlur_0_53"/>
<feBlend mode="normal" in="SourceGraphic" in2="effect1_backgroundBlur_0_53" result="shape"/>
</filter>
<filter id="filter7_b_0_53" x="311.6809997558594" y="-10" width="21" height="707" filterUnits="userSpaceOnUse" color-interpolation-filters="sRGB">
<feFlood flood-opacity="0" result="BackgroundImageFix"/>
<feGaussianBlur in="BackgroundImage" stdDeviation="5"/>
<feComposite in2="SourceAlpha" operator="in" result="effect1_backgroundBlur_0_53"/>
<feBlend mode="normal" in="SourceGraphic" in2="effect1_backgroundBlur_0_53" result="shape"/>
</filter>
<filter id="filter8_b_0_53" x="348.32000732421875" y="-10" width="21" height="707" filterUnits="userSpaceOnUse" color-interpolation-filters="sRGB">
<feFlood flood-opacity="0" result="BackgroundImageFix"/>
<feGaussianBlur in="BackgroundImage" stdDeviation="5"/>
<feComposite in2="SourceAlpha" operator="in" result="effect1_backgroundBlur_0_53"/>
<feBlend mode="normal" in="SourceGraphic" in2="effect1_backgroundBlur_0_53" result="shape"/>
</filter>
<filter id="filter9_b_0_53" x="384.9620056152344" y="-10" width="21" height="707" filterUnits="userSpaceOnUse" color-interpolation-filters="sRGB">
<feFlood flood-opacity="0" result="BackgroundImageFix"/>
<feGaussianBlur in="BackgroundImage" stdDeviation="5"/>
<feComposite in2="SourceAlpha" operator="in" result="effect1_backgroundBlur_0_53"/>
<feBlend mode="normal" in="SourceGraphic" in2="effect1_backgroundBlur_0_53" result="shape"/>
</filter>
<filter id="filter10_b_0_53" x="421.60101318359375" y="-10" width="21" height="707" filterUnits="userSpaceOnUse" color-interpolation-filters="sRGB">
<feFlood flood-opacity="0" result="BackgroundImageFix"/>
<feGaussianBlur in="BackgroundImage" stdDeviation="5"/>
<feComposite in2="SourceAlpha" operator="in" result="effect1_backgroundBlur_0_53"/>
<feBlend mode="normal" in="SourceGraphic" in2="effect1_backgroundBlur_0_53" result="shape"/>
</filter>
<filter id="filter11_b_0_53" x="458.2409973144531" y="-10" width="21" height="707" filterUnits="userSpaceOnUse" color-interpolation-filters="sRGB">
<feFlood flood-opacity="0" result="BackgroundImageFix"/>
<feGaussianBlur in="BackgroundImage" stdDeviation="5"/>
<feComposite in2="SourceAlpha" operator="in" result="effect1_backgroundBlur_0_53"/>
<feBlend mode="normal" in="SourceGraphic" in2="effect1_backgroundBlur_0_53" result="shape"/>
</filter>
<filter id="filter12_b_0_53" x="494.8800048828125" y="-10" width="21" height="707" filterUnits="userSpaceOnUse" color-interpolation-filters="sRGB">
<feFlood flood-opacity="0" result="BackgroundImageFix"/>
<feGaussianBlur in="BackgroundImage" stdDeviation="5"/>
<feComposite in2="SourceAlpha" operator="in" result="effect1_backgroundBlur_0_53"/>
<feBlend mode="normal" in="SourceGraphic" in2="effect1_backgroundBlur_0_53" result="shape"/>
</filter>
<filter id="filter13_b_0_53" x="531.52197265625" y="-10" width="21" height="707" filterUnits="userSpaceOnUse" color-interpolation-filters="sRGB">
<feFlood flood-opacity="0" result="BackgroundImageFix"/>
<feGaussianBlur in="BackgroundImage" stdDeviation="5"/>
<feComposite in2="SourceAlpha" operator="in" result="effect1_backgroundBlur_0_53"/>
<feBlend mode="normal" in="SourceGraphic" in2="effect1_backgroundBlur_0_53" result="shape"/>
</filter>
<filter id="filter14_b_0_53" x="568.1610107421875" y="-10" width="21" height="707" filterUnits="userSpaceOnUse" color-interpolation-filters="sRGB">
<feFlood flood-opacity="0" result="BackgroundImageFix"/>
<feGaussianBlur in="BackgroundImage" stdDeviation="5"/>
<feComposite in2="SourceAlpha" operator="in" result="effect1_backgroundBlur_0_53"/>
<feBlend mode="normal" in="SourceGraphic" in2="effect1_backgroundBlur_0_53" result="shape"/>
</filter>
<filter id="filter15_b_0_53" x="604.801025390625" y="-10" width="21" height="707" filterUnits="userSpaceOnUse" color-interpolation-filters="sRGB">
<feFlood flood-opacity="0" result="BackgroundImageFix"/>
<feGaussianBlur in="BackgroundImage" stdDeviation="5"/>
<feComposite in2="SourceAlpha" operator="in" result="effect1_backgroundBlur_0_53"/>
<feBlend mode="normal" in="SourceGraphic" in2="effect1_backgroundBlur_0_53" result="shape"/>
</filter>
<filter id="filter16_b_0_53" x="-2.000309944152832" y="58.5" width="684" height="21" filterUnits="userSpaceOnUse" color-interpolation-filters="sRGB">
<feFlood flood-opacity="0" result="BackgroundImageFix"/>
<feGaussianBlur in="BackgroundImage" stdDeviation="5"/>
<feComposite in2="SourceAlpha" operator="in" result="effect1_backgroundBlur_0_53"/>
<feBlend mode="normal" in="SourceGraphic" in2="effect1_backgroundBlur_0_53" result="shape"/>
</filter>
<filter id="filter17_b_0_53" x="-2.000309944152832" y="94.5" width="684" height="21" filterUnits="userSpaceOnUse" color-interpolation-filters="sRGB">
<feFlood flood-opacity="0" result="BackgroundImageFix"/>
<feGaussianBlur in="BackgroundImage" stdDeviation="5"/>
<feComposite in2="SourceAlpha" operator="in" result="effect1_backgroundBlur_0_53"/>
<feBlend mode="normal" in="SourceGraphic" in2="effect1_backgroundBlur_0_53" result="shape"/>
</filter>
<filter id="filter18_b_0_53" x="-2.000309944152832" y="131.5" width="684" height="21" filterUnits="userSpaceOnUse" color-interpolation-filters="sRGB">
<feFlood flood-opacity="0" result="BackgroundImageFix"/>
<feGaussianBlur in="BackgroundImage" stdDeviation="5"/>
<feComposite in2="SourceAlpha" operator="in" result="effect1_backgroundBlur_0_53"/>
<feBlend mode="normal" in="SourceGraphic" in2="effect1_backgroundBlur_0_53" result="shape"/>
</filter>
<filter id="filter19_b_0_53" x="-2.000309944152832" y="168.5" width="684" height="21" filterUnits="userSpaceOnUse" color-interpolation-filters="sRGB">
<feFlood flood-opacity="0" result="BackgroundImageFix"/>
<feGaussianBlur in="BackgroundImage" stdDeviation="5"/>
<feComposite in2="SourceAlpha" operator="in" result="effect1_backgroundBlur_0_53"/>
<feBlend mode="normal" in="SourceGraphic" in2="effect1_backgroundBlur_0_53" result="shape"/>
</filter>
<filter id="filter20_b_0_53" x="-2.000309944152832" y="204.5" width="684" height="21" filterUnits="userSpaceOnUse" color-interpolation-filters="sRGB">
<feFlood flood-opacity="0" result="BackgroundImageFix"/>
<feGaussianBlur in="BackgroundImage" stdDeviation="5"/>
<feComposite in2="SourceAlpha" operator="in" result="effect1_backgroundBlur_0_53"/>
<feBlend mode="normal" in="SourceGraphic" in2="effect1_backgroundBlur_0_53" result="shape"/>
</filter>
<filter id="filter21_b_0_53" x="-2.000309944152832" y="241.5" width="684" height="21" filterUnits="userSpaceOnUse" color-interpolation-filters="sRGB">
<feFlood flood-opacity="0" result="BackgroundImageFix"/>
<feGaussianBlur in="BackgroundImage" stdDeviation="5"/>
<feComposite in2="SourceAlpha" operator="in" result="effect1_backgroundBlur_0_53"/>
<feBlend mode="normal" in="SourceGraphic" in2="effect1_backgroundBlur_0_53" result="shape"/>
</filter>
<filter id="filter22_b_0_53" x="-2.000309944152832" y="278.5" width="684" height="21" filterUnits="userSpaceOnUse" color-interpolation-filters="sRGB">
<feFlood flood-opacity="0" result="BackgroundImageFix"/>
<feGaussianBlur in="BackgroundImage" stdDeviation="5"/>
<feComposite in2="SourceAlpha" operator="in" result="effect1_backgroundBlur_0_53"/>
<feBlend mode="normal" in="SourceGraphic" in2="effect1_backgroundBlur_0_53" result="shape"/>
</filter>
<filter id="filter23_b_0_53" x="-2.000309944152832" y="314.5" width="684" height="21" filterUnits="userSpaceOnUse" color-interpolation-filters="sRGB">
<feFlood flood-opacity="0" result="BackgroundImageFix"/>
<feGaussianBlur in="BackgroundImage" stdDeviation="5"/>
<feComposite in2="SourceAlpha" operator="in" result="effect1_backgroundBlur_0_53"/>
<feBlend mode="normal" in="SourceGraphic" in2="effect1_backgroundBlur_0_53" result="shape"/>
</filter>
<filter id="filter24_b_0_53" x="-2.000309944152832" y="351.5" width="684" height="21" filterUnits="userSpaceOnUse" color-interpolation-filters="sRGB">
<feFlood flood-opacity="0" result="BackgroundImageFix"/>
<feGaussianBlur in="BackgroundImage" stdDeviation="5"/>
<feComposite in2="SourceAlpha" operator="in" result="effect1_backgroundBlur_0_53"/>
<feBlend mode="normal" in="SourceGraphic" in2="effect1_backgroundBlur_0_53" result="shape"/>
</filter>
<filter id="filter25_b_0_53" x="-2.000309944152832" y="387.5" width="684" height="21" filterUnits="userSpaceOnUse" color-interpolation-filters="sRGB">
<feFlood flood-opacity="0" result="BackgroundImageFix"/>
<feGaussianBlur in="BackgroundImage" stdDeviation="5"/>
<feComposite in2="SourceAlpha" operator="in" result="effect1_backgroundBlur_0_53"/>
<feBlend mode="normal" in="SourceGraphic" in2="effect1_backgroundBlur_0_53" result="shape"/>
</filter>
<filter id="filter26_b_0_53" x="-2.000309944152832" y="424.5" width="684" height="21" filterUnits="userSpaceOnUse" color-interpolation-filters="sRGB">
<feFlood flood-opacity="0" result="BackgroundImageFix"/>
<feGaussianBlur in="BackgroundImage" stdDeviation="5"/>
<feComposite in2="SourceAlpha" operator="in" result="effect1_backgroundBlur_0_53"/>
<feBlend mode="normal" in="SourceGraphic" in2="effect1_backgroundBlur_0_53" result="shape"/>
</filter>
<filter id="filter27_b_0_53" x="-2.000309944152832" y="461.5" width="684" height="21" filterUnits="userSpaceOnUse" color-interpolation-filters="sRGB">
<feFlood flood-opacity="0" result="BackgroundImageFix"/>
<feGaussianBlur in="BackgroundImage" stdDeviation="5"/>
<feComposite in2="SourceAlpha" operator="in" result="effect1_backgroundBlur_0_53"/>
<feBlend mode="normal" in="SourceGraphic" in2="effect1_backgroundBlur_0_53" result="shape"/>
</filter>
<filter id="filter28_b_0_53" x="-2.000309944152832" y="497.5" width="684" height="21" filterUnits="userSpaceOnUse" color-interpolation-filters="sRGB">
<feFlood flood-opacity="0" result="BackgroundImageFix"/>
<feGaussianBlur in="BackgroundImage" stdDeviation="5"/>
<feComposite in2="SourceAlpha" operator="in" result="effect1_backgroundBlur_0_53"/>
<feBlend mode="normal" in="SourceGraphic" in2="effect1_backgroundBlur_0_53" result="shape"/>
</filter>
<filter id="filter29_b_0_53" x="-2.000309944152832" y="534.5" width="684" height="21" filterUnits="userSpaceOnUse" color-interpolation-filters="sRGB">
<feFlood flood-opacity="0" result="BackgroundImageFix"/>
<feGaussianBlur in="BackgroundImage" stdDeviation="5"/>
<feComposite in2="SourceAlpha" operator="in" result="effect1_backgroundBlur_0_53"/>
<feBlend mode="normal" in="SourceGraphic" in2="effect1_backgroundBlur_0_53" result="shape"/>
</filter>
<filter id="filter30_b_0_53" x="-2.000309944152832" y="571.5" width="684" height="21" filterUnits="userSpaceOnUse" color-interpolation-filters="sRGB">
<feFlood flood-opacity="0" result="BackgroundImageFix"/>
<feGaussianBlur in="BackgroundImage" stdDeviation="5"/>
<feComposite in2="SourceAlpha" operator="in" result="effect1_backgroundBlur_0_53"/>
<feBlend mode="normal" in="SourceGraphic" in2="effect1_backgroundBlur_0_53" result="shape"/>
</filter>
<filter id="filter31_b_0_53" x="-2.000309944152832" y="607.5" width="684" height="21" filterUnits="userSpaceOnUse" color-interpolation-filters="sRGB">
<feFlood flood-opacity="0" result="BackgroundImageFix"/>
<feGaussianBlur in="BackgroundImage" stdDeviation="5"/>
<feComposite in2="SourceAlpha" operator="in" result="effect1_backgroundBlur_0_53"/>
<feBlend mode="normal" in="SourceGraphic" in2="effect1_backgroundBlur_0_53" result="shape"/>
</filter>
<filter id="filter32_d_0_53" x="447.1659851074219" y="75.85780334472656" width="204.17999267578125" height="320.18499755859375" filterUnits="userSpaceOnUse" color-interpolation-filters="sRGB">
<feFlood flood-opacity="0" result="BackgroundImageFix"/>
<feColorMatrix in="SourceAlpha" type="matrix" values="0 0 0 0 0 0 0 0 0 0 0 0 0 0 0 0 0 0 127 0" result="hardAlpha"/>
<feOffset dy="59.8751"/>
<feGaussianBlur stdDeviation="16.1202"/>
<feComposite in2="hardAlpha" operator="out"/>
<feColorMatrix type="matrix" values="0 0 0 0 0.337255 0 0 0 0 0.717647 0 0 0 0 0.420941 0 0 0 0.15 0"/>
<feBlend mode="normal" in2="BackgroundImageFix" result="effect1_dropShadow_0_53"/>
<feBlend mode="normal" in="SourceGraphic" in2="effect1_dropShadow_0_53" result="shape"/>
</filter>
<filter id="filter33_d_0_53" x="102.8280029296875" y="133.0030059814453" width="484.1919860839844" height="534.0050048828125" filterUnits="userSpaceOnUse" color-interpolation-filters="sRGB">
<feFlood flood-opacity="0" result="BackgroundImageFix"/>
<feColorMatrix in="SourceAlpha" type="matrix" values="0 0 0 0 0 0 0 0 0 0 0 0 0 0 0 0 0 0 127 0" result="hardAlpha"/>
<feOffset dy="130"/>
<feGaussianBlur stdDeviation="35"/>
<feComposite in2="hardAlpha" operator="out"/>
<feColorMatrix type="matrix" values="0 0 0 0 0.388235 0 0 0 0 0.337255 0 0 0 0 0.717647 0 0 0 0.1 0"/>
<feBlend mode="normal" in2="BackgroundImageFix" result="effect1_dropShadow_0_53"/>
<feBlend mode="normal" in="SourceGraphic" in2="effect1_dropShadow_0_53" result="shape"/>
</filter>
<filter id="filter34_d_0_53" x="332.9129943847656" y="385.50201416015625" width="323.12298583984375" height="379.1600036621094" filterUnits="userSpaceOnUse" color-interpolation-filters="sRGB">
<feFlood flood-opacity="0" result="BackgroundImageFix"/>
<feColorMatrix in="SourceAlpha" type="matrix" values="0 0 0 0 0 0 0 0 0 0 0 0 0 0 0 0 0 0 127 0" result="hardAlpha"/>
<feOffset dy="130"/>
<feGaussianBlur stdDeviation="25"/>
<feComposite in2="hardAlpha" operator="out"/>
<feColorMatrix type="matrix" values="0 0 0 0 0.436157 0 0 0 0 0.337255 0 0 0 0 0.717647 0 0 0 0.05 0"/>
<feBlend mode="normal" in2="BackgroundImageFix" result="effect1_dropShadow_0_53"/>
<feBlend mode="normal" in="SourceGraphic" in2="effect1_dropShadow_0_53" result="shape"/>
</filter>
<filter id="filter35_b_0_53" x="378.9129943847656" y="382.68499755859375" width="155.23399353027344" height="205.9759979248047" filterUnits="userSpaceOnUse" color-interpolation-filters="sRGB">
<feFlood flood-opacity="0" result="BackgroundImageFix"/>
<feGaussianBlur in="BackgroundImage" stdDeviation="2"/>
<feComposite in2="SourceAlpha" operator="in" result="effect1_backgroundBlur_0_53"/>
<feBlend mode="normal" in="SourceGraphic" in2="effect1_backgroundBlur_0_53" result="shape"/>
</filter>
<filter id="filter36_b_0_53" x="421.6470031738281" y="381.50201416015625" width="188.38900756835938" height="94.53119659423828" filterUnits="userSpaceOnUse" color-interpolation-filters="sRGB">
<feFlood flood-opacity="0" result="BackgroundImageFix"/>
<feGaussianBlur in="BackgroundImage" stdDeviation="2"/>
<feComposite in2="SourceAlpha" operator="in" result="effect1_backgroundBlur_0_53"/>
<feBlend mode="normal" in="SourceGraphic" in2="effect1_backgroundBlur_0_53" result="shape"/>
</filter>
<filter id="filter37_b_0_53" x="37.93090057373047" y="327.4930114746094" width="224.81900024414062" height="212.23699951171875" filterUnits="userSpaceOnUse" color-interpolation-filters="sRGB">
<feFlood flood-opacity="0" result="BackgroundImageFix"/>
<feGaussianBlur in="BackgroundImage" stdDeviation="12.0513"/>
<feComposite in2="SourceAlpha" operator="in" result="effect1_backgroundBlur_0_53"/>
<feBlend mode="normal" in="SourceGraphic" in2="effect1_backgroundBlur_0_53" result="shape"/>
</filter>
<filter id="filter38_b_0_53" x="42.74909973144531" y="315.4419860839844" width="224.81900024414062" height="212.23699951171875" filterUnits="userSpaceOnUse" color-interpolation-filters="sRGB">
<feFlood flood-opacity="0" result="BackgroundImageFix"/>
<feGaussianBlur in="BackgroundImage" stdDeviation="12.0513"/>
<feComposite in2="SourceAlpha" operator="in" result="effect1_backgroundBlur_0_53"/>
<feBlend mode="normal" in="SourceGraphic" in2="effect1_backgroundBlur_0_53" result="shape"/>
</filter>
<linearGradient id="paint0_linear_0_53" x1="0.8566917081869748" y1="0.2506133077094044" x2="0.5269965980052327" y2="0.16474700777301668">
<stop stop-color="#278C7E"/>
<stop offset="1" stop-color="#7CEBCA"/>
</linearGradient>
<linearGradient id="paint1_linear_0_53" x1="1.9914619146191461" y1="1.8862093655500334" x2="0.8889388893888939" y2="3.089710295738196">
<stop stop-color="#FFE895"/>
<stop offset="1" stop-color="#A5FF96"/>
</linearGradient>
<linearGradient id="paint2_linear_0_53" x1="0.6838088380883809" y1="0.2757937029135319" x2="0.605050050500505" y2="0.8068831583275703">
<stop stop-color="#3BBA7F"/>
<stop offset="1" stop-color="white"/>
</linearGradient>
<linearGradient id="paint3_linear_0_53" x1="0.04806670030605733" y1="0.40424492016385205" x2="0.7716788579049496" y2="0.9085827100590228">
<stop stop-color="#A96389"/>
<stop offset="1" stop-color="#BD92EA"/>
</linearGradient>
<linearGradient id="paint4_linear_0_53" x1="0.7099153172479171" y1="0.11576183606697114" x2="0.3713609742314794" y2="0.7819411267994086">
<stop stop-color="#5049B8"/>
<stop offset="1" stop-color="#846CB2"/>
</linearGradient>
<linearGradient id="paint5_linear_0_53" x1="0.9234034014750483" y1="0.17488724416750534" x2="0.047564112562000826" y2="0.8697850229709487">
<stop stop-color="#6684F9"/>
<stop offset="0.504278" stop-color="#E3A2D8"/>
<stop offset="1" stop-color="#FFB989"/>
</linearGradient>
<linearGradient id="paint6_linear_0_53" x1="0.8270941058557212" y1="0.1678409073157015" x2="0.589919041474563" y2="0.8621937210670749">
<stop stop-color="#8572FF"/>
<stop offset="1" stop-color="white"/>
</linearGradient>
<linearGradient id="paint7_linear_0_53" x1="0.3848187523305374" y1="0.8465168287839676" x2="0.6468726182918091" y2="0.3786620520964263">
<stop stop-color="#FFB7A0"/>
<stop offset="1" stop-color="#F6DFA4"/>
</linearGradient>
<linearGradient id="paint8_linear_0_53" x1="0.38377584291485917" y1="1.0503166959201866" x2="0.6520578223025186" y2="-0.17192143294527806">
<stop stop-color="#FF68B1"/>
<stop offset="1" stop-color="#FFCF87"/>
</linearGradient>
<linearGradient id="paint9_linear_0_53" x1="2.0802764411425705" y1="2.5708828272931923" x2="0.5087781448343568" y2="0.21459367782222696">
<stop stop-color="#FE9535"/>
<stop offset="1" stop-color="#FFF9BE"/>
</linearGradient>
<linearGradient id="paint10_linear_0_53" x1="0.3992911572838255" y1="0.37033807815913083" x2="0.6747505778521904" y2="0.6986917084123084">
<stop stop-color="#FFBC6C"/>
<stop offset="1" stop-color="#FFD0D3"/>
</linearGradient>
<linearGradient id="paint11_linear_0_53" x1="2.142216551919793" y1="-1.0529168826309236" x2="0.5278753703110343" y2="0.6508045955403493">
<stop stop-color="#FE9535"/>
<stop offset="1" stop-color="#FFF9BE"/>
</linearGradient>
<linearGradient id="paint12_linear_0_53" x1="0.37491372456794736" y1="0.9414075583929873" x2="0.6653850876642718" y2="0.034808659440678846">
<stop/>
<stop offset="1" stop-color="#BDD7FF" stop-opacity="0.13"/>
</linearGradient>
<linearGradient id="paint13_linear_0_53" x1="0.47226003382952086" y1="1.0057414417452188" x2="0.7662785315575115" y2="0.04962662861979668">
<stop/>
<stop offset="1" stop-color="#BDD7FF" stop-opacity="0.13"/>
</linearGradient>
</defs>
<g class="currentLayer" style=""><title>Layer 1</title><g opacity="0.5" id="svg_1" class="selected">
<g filter="url(#filter0_b_0_53)" id="svg_2">
<path d="M65.701 0L65.701 687" stroke="#CEE1EA" id="svg_3"/>
</g>
<g filter="url(#filter1_b_0_53)" id="svg_4">
<path d="M102.34 0L102.34 687" stroke="#CEE1EA" id="svg_5"/>
</g>
<g filter="url(#filter2_b_0_53)" id="svg_6">
<path d="M138.982 0L138.982 687" stroke="#CEE1EA" id="svg_7"/>
</g>
<g filter="url(#filter3_b_0_53)" id="svg_8">
<path d="M175.621 0L175.621 687" stroke="#CEE1EA" id="svg_9"/>
</g>
<g filter="url(#filter4_b_0_53)" id="svg_10">
<path d="M212.261 0L212.261 687" stroke="#CEE1EA" id="svg_11"/>
</g>
<g filter="url(#filter5_b_0_53)" id="svg_12">
<path d="M248.9 0L248.9 687" stroke="#CEE1EA" id="svg_13"/>
</g>
<g filter="url(#filter6_b_0_53)" id="svg_14">
<path d="M285.542 0L285.542 687" stroke="#CEE1EA" id="svg_15"/>
</g>
<g filter="url(#filter7_b_0_53)" id="svg_16">
<path d="M322.181 0L322.181 687" stroke="#CEE1EA" id="svg_17"/>
</g>
<g filter="url(#filter8_b_0_53)" id="svg_18">
<path d="M358.82 0L358.82 687" stroke="#CEE1EA" id="svg_19"/>
</g>
<g filter="url(#filter9_b_0_53)" id="svg_20">
<path d="M395.462 0L395.462 687" stroke="#CEE1EA" id="svg_21"/>
</g>
<g filter="url(#filter10_b_0_53)" id="svg_22">
<path d="M432.101 0L432.101 687" stroke="#CEE1EA" id="svg_23"/>
</g>
<g filter="url(#filter11_b_0_53)" id="svg_24">
<path d="M468.741 0L468.741 687" stroke="#CEE1EA" id="svg_25"/>
</g>
<g filter="url(#filter12_b_0_53)" id="svg_26">
<path d="M505.38 0L505.38 687" stroke="#CEE1EA" id="svg_27"/>
</g>
<g filter="url(#filter13_b_0_53)" id="svg_28">
<path d="M542.022 0V687" stroke="#CEE1EA" id="svg_29"/>
</g>
<g filter="url(#filter14_b_0_53)" id="svg_30">
<path d="M578.661 0V687" stroke="#CEE1EA" id="svg_31"/>
</g>
<g filter="url(#filter15_b_0_53)" id="svg_32">
<path d="M615.301 0V687" stroke="#CEE1EA" id="svg_33"/>
</g>
<g filter="url(#filter16_b_0_53)" id="svg_34">
<path d="M672 69L7.9997 69" stroke="#CEE1EA" id="svg_35"/>
</g>
<g filter="url(#filter17_b_0_53)" id="svg_36">
<path d="M672 105L7.9997 105" stroke="#CEE1EA" id="svg_37"/>
</g>
<g filter="url(#filter18_b_0_53)" id="svg_38">
<path d="M672 142L7.9997 142" stroke="#CEE1EA" id="svg_39"/>
</g>
<g filter="url(#filter19_b_0_53)" id="svg_40">
<path d="M672 179L7.9997 179" stroke="#CEE1EA" id="svg_41"/>
</g>
<g filter="url(#filter20_b_0_53)" id="svg_42">
<path d="M672 215L7.9997 215" stroke="#CEE1EA" id="svg_43"/>
</g>
<g filter="url(#filter21_b_0_53)" id="svg_44">
<path d="M672 252L7.9997 252" stroke="#CEE1EA" id="svg_45"/>
</g>
<g filter="url(#filter22_b_0_53)" id="svg_46">
<path d="M672 289L7.9997 289" stroke="#CEE1EA" id="svg_47"/>
</g>
<g filter="url(#filter23_b_0_53)" id="svg_48">
<path d="M672 325L7.9997 325" stroke="#CEE1EA" id="svg_49"/>
</g>
<g filter="url(#filter24_b_0_53)" id="svg_50">
<path d="M672 362L7.9997 362" stroke="#CEE1EA" id="svg_51"/>
</g>
<g filter="url(#filter25_b_0_53)" id="svg_52">
<path d="M672 398L7.9997 398" stroke="#CEE1EA" id="svg_53"/>
</g>
<g filter="url(#filter26_b_0_53)" id="svg_54">
<path d="M672 435L7.9997 435" stroke="#CEE1EA" id="svg_55"/>
</g>
<g filter="url(#filter27_b_0_53)" id="svg_56">
<path d="M672 472L7.9997 472" stroke="#CEE1EA" id="svg_57"/>
</g>
<g filter="url(#filter28_b_0_53)" id="svg_58">
<path d="M672 508L7.9997 508" stroke="#CEE1EA" id="svg_59"/>
</g>
<g filter="url(#filter29_b_0_53)" id="svg_60">
<path d="M672 545L7.9997 545" stroke="#CEE1EA" id="svg_61"/>
</g>
<g filter="url(#filter30_b_0_53)" id="svg_62">
<path d="M672 582L7.9997 582" stroke="#CEE1EA" id="svg_63"/>
</g>
<g filter="url(#filter31_b_0_53)" id="svg_64">
<path d="M672 618L7.9997 618" stroke="#CEE1EA" id="svg_65"/>
</g>
</g><g filter="url(#filter32_d_0_53)" id="svg_66">
<path d="M541.078 300.579C539.077 305.814 523.698 304.8 506.727 298.314C489.756 291.828 477.621 282.326 479.622 277.09C481.623 271.854 557.558 78.8801 557.558 78.8801L619.014 102.369C619.014 102.369 542.178 297.7 541.078 300.579Z" fill="url(#paint0_linear_0_53)" id="svg_67"/>
<path d="M618.491 102.543C618.063 103.664 616.889 104.526 614.953 105.051C613.028 105.574 610.44 105.737 607.355 105.534C601.192 105.127 593.147 103.265 584.69 100.033C576.233 96.8008 568.997 92.8225 564.134 89.0146C561.7 87.1089 559.881 85.2612 558.795 83.588C557.704 81.9052 557.403 80.4802 557.831 79.3592C558.26 78.2383 559.434 77.377 561.37 76.8514C563.295 76.3287 565.883 76.1656 568.967 76.3689C575.131 76.7752 583.176 78.6374 591.632 81.8696C600.089 85.1018 607.326 89.0801 612.189 92.8881C614.622 94.7938 616.442 96.6414 617.527 98.3147C618.619 99.9974 618.92 101.422 618.491 102.543Z" fill="url(#paint1_linear_0_53)" stroke="url(#paint2_linear_0_53)" stroke-width="0.852615" id="svg_68"/>
</g><g filter="url(#filter33_d_0_53)" id="svg_69" class="">
<path d="M468.088 416.925C435.055 472.968 337.524 485.317 260.791 436.864C197.399 396.835 152.497 310.715 182.198 254.858C219.131 192.199 215.926 197.637 215.926 197.637C215.926 197.637 231.314 312.335 292.016 357.141C355.302 403.854 498.996 364.489 498.996 364.489C498.996 364.489 472.33 409.728 468.088 416.925Z" fill="url(#paint3_linear_0_53)" id="svg_70"/>
<path d="M416.753 365.479C393.391 405.113 599.842 291.819 429.119 180.447C258.397 69.0756 221.156 303.592 244.518 263.958C267.88 224.323 325.375 214.92 372.936 242.954C420.497 270.988 440.115 325.845 416.753 365.479Z" fill="url(#paint4_linear_0_53)" id="svg_71"/>
<mask id="path-37-inside-1_0_53" fill="white">
<path fill-rule="evenodd" clip-rule="evenodd" d="M289.361 395.686C367.749 441.89 462.438 426.511 500.856 361.334C539.273 296.158 506.871 205.866 428.483 159.661C350.095 113.456 255.405 128.836 216.988 194.012C178.571 259.189 210.973 349.481 289.361 395.686ZM324.141 336.679C370.822 364.195 425.919 357.226 447.204 321.115C468.49 285.004 447.903 233.424 401.222 205.909C354.542 178.394 299.445 185.362 278.159 221.474C256.874 257.585 277.461 309.164 324.141 336.679Z" id="svg_72"/>
</mask>
<path fill-rule="evenodd" clip-rule="evenodd" d="M289.361 395.686C367.749 441.89 462.438 426.511 500.856 361.334C539.273 296.158 506.871 205.866 428.483 159.661C350.095 113.456 255.405 128.836 216.988 194.012C178.571 259.189 210.973 349.481 289.361 395.686ZM324.141 336.679C370.822 364.195 425.919 357.226 447.204 321.115C468.49 285.004 447.903 233.424 401.222 205.909C354.542 178.394 299.445 185.362 278.159 221.474C256.874 257.585 277.461 309.164 324.141 336.679Z" fill="url(#paint5_linear_0_53)" id="svg_73"/>
<path d="M499.261 360.394C461.518 424.427 368.096 439.946 290.301 394.091L288.421 397.28C367.401 443.834 463.359 428.594 502.45 362.274L499.261 360.394ZM427.543 161.256C505.338 207.111 537.004 296.362 499.261 360.394L502.45 362.274C541.542 295.954 508.403 204.62 429.423 158.066L427.543 161.256ZM218.583 194.952C256.326 130.92 349.747 115.4 427.543 161.256L429.423 158.066C350.442 111.512 254.485 126.752 215.393 193.072L218.583 194.952ZM290.301 394.091C212.506 348.235 180.839 258.985 218.583 194.952L215.393 193.072C176.302 259.392 209.44 350.726 288.421 397.28L290.301 394.091ZM445.609 320.175C425.053 355.049 371.286 362.319 325.081 335.085L323.201 338.274C370.358 366.07 426.784 359.404 448.799 322.055L445.609 320.175ZM400.282 207.504C446.487 234.738 466.165 285.301 445.609 320.175L448.799 322.055C470.814 284.706 449.318 232.11 402.162 204.314L400.282 207.504ZM279.754 222.414C300.31 187.54 354.078 180.269 400.282 207.504L402.162 204.314C355.006 176.519 298.579 183.185 276.565 220.534L279.754 222.414ZM325.081 335.085C278.877 307.85 259.198 257.288 279.754 222.414L276.565 220.534C254.55 257.882 276.045 310.479 323.201 338.274L325.081 335.085Z" fill="url(#paint6_linear_0_53)" mask="url(#path-37-inside-1_0_53)" id="svg_74"/>
</g><g filter="url(#filter34_d_0_53)" id="svg_75">
<g opacity="0.9" filter="url(#filter35_b_0_53)" id="svg_76">
<path d="M426.043 386.685L530.146 471.942L469.18 584.661L382.913 496.736L426.043 386.685Z" fill="url(#paint7_linear_0_53)" id="svg_77"/>
</g>
<path d="M529.445 472.033L606.036 457.824L550.991 561.22L469.18 584.661L529.445 472.033Z" fill="url(#paint8_linear_0_53)" id="svg_78"/>
<g opacity="0.9" filter="url(#filter36_b_0_53)" id="svg_79">
<path d="M512.165 385.502L606.036 457.824L529.445 472.033L425.647 386.38L512.165 385.502Z" fill="url(#paint9_linear_0_53)" id="svg_80"/>
<path d="M428.191 387.28L511.854 386.43L603.829 457.293L529.701 471.044L428.191 387.28Z" stroke="white" stroke-width="1.85119" id="svg_81"/>
</g>
</g><path d="M73.8741 263.849C78.8027 270.071 87.8389 271.127 94.069 266.208L247.525 145.06C253.833 140.08 254.839 130.898 249.758 124.671L212.499 79.0002L39.0105 219.837L73.8741 263.849Z" fill="url(#paint10_linear_0_53)" stroke="white" stroke-width="0.719444" id="svg_82"/><path d="M19.158 174.731C16.8974 168.856 18.7182 162.194 23.6526 158.285L156.796 52.8171C161.73 48.9084 168.633 48.661 173.834 52.2063L209.971 76.8369C213.981 79.57 214.191 85.408 210.387 88.4213L46.045 218.603C42.241 221.616 36.6059 220.076 34.8632 215.547L19.158 174.731Z" fill="url(#paint11_linear_0_53)" stroke="white" stroke-width="0.719444" id="svg_83"/><g filter="url(#filter37_b_0_53)" id="svg_84">
<ellipse cx="150.33999633789062" cy="433.61199951171875" rx="88.66280364990234" ry="81.59010314941406" transform="rotate(13.578100204467773 150.3399963378906,433.6119995117188) " fill="url(#paint12_linear_0_53)" fill-opacity="0.7" id="svg_85"/>
<path d="M235.939 454.286C225.449 497.719 178.649 523.765 131.327 512.336C84.005 500.906 54.2512 456.371 64.7412 412.938C75.2312 369.505 122.032 343.458 169.354 354.888C216.676 366.317 246.429 410.852 235.939 454.286Z" stroke="#FFFAFA" stroke-width="1.20513" id="svg_86"/>
</g><g filter="url(#filter38_b_0_53)" id="svg_87" class="">
<ellipse cx="155.1580047607422" cy="421.55999755859375" rx="88.66280364990234" ry="81.59010314941406" transform="rotate(13.578100204467773 155.15800476074284,421.5599975585937) " fill="url(#paint13_linear_0_53)" fill-opacity="0.7" id="svg_88"/>
<path d="M240.758 442.234C230.268 485.667 183.467 511.713 136.145 500.284C88.8232 488.855 59.0694 444.32 69.5594 400.886C80.0494 357.453 126.85 331.407 174.172 342.836C221.494 354.265 251.248 398.801 240.758 442.234Z" stroke="#FFFAFA" stroke-width="1.20513" id="svg_89"/>
</g></g></svg>